<?xml version="1.0" encoding="UTF-8"?>
<svg id="Layer_2" data-name="Layer 2" xmlns="http://www.w3.org/2000/svg" viewBox="0 0 170.82 170.82">
  <defs>
    <style>
      .cls-1, .cls-2, .cls-3, .cls-4 {
        stroke-width: 0px;
      }

      .cls-2 {
        fill: none;
      }

      .cls-3 {
        fill: #ef0e0c;
      }

      .cls-4 {
        fill: #fff;
      }
    </style>
  </defs>
  <g id="Layer_1-2" data-name="Layer 1">
    <circle class="cls-2" cx="85.41" cy="85.41" r="85.41"/>
    <g>
      <path class="cls-1" d="m156.46,42.12c-1.95-2.35-4.77-3.63-7.69-3.63-1.53,0-3.05.36-4.42,1.04l-40.02,19.87,4.65-8.01c1.79-3.08,1.79-6.9,0-9.98l-14.97-25.79c-2.2-3.79-6.74-5.8-11.17-4.61-2.63.71-4.82,2.54-6.19,4.9l-14.8,25.5c-1.79,3.09-1.79,6.89,0,9.98l4.75,8.19-40.1-20.03c-1.37-.69-2.91-1.05-4.44-1.05-2.93,0-5.76,1.29-7.7,3.65-1.51,1.82-2.24,4.17-2.24,6.53v60.46c0,3.33,1.66,6.43,4.43,8.27l61.62,41.02c1.64,1.09,3.55,1.79,5.51,1.66h0c1.16.1,2.32.1,3.48,0,1.97,0,3.87-.58,5.51-1.67l61.62-41.02c2.78-1.85,4.43-4.94,4.43-8.27v-60.47c0-2.37-.74-4.71-2.25-6.54Z"/>
      <path class="cls-4" d="m153.35,45.16c-1.14-1.56-2.86-2.35-4.58-2.35-.85,0-1.71.19-2.5.59l-51.94,25.79c-.4.2-.76.44-1.1.72l12.01-20.69c1.01-1.74,1.01-3.9,0-5.64l-14.9-25.67c-.62-1.07-1.53-1.98-2.68-2.46-2.77-1.16-5.73-.03-7.11,2.34l-14.97,25.79c-1.01,1.74-1.01,3.9,0,5.64l12.51,21.55c-.51-.65-1.15-1.19-1.91-1.57l-51.62-25.79c-.79-.4-1.65-.59-2.51-.59-1.72,0-3.43.79-4.57,2.33-.73.98-1.05,2.2-1.05,3.43v60.56c0,1.88.94,3.64,2.5,4.68l61.62,41.02c.94.63,2.03.94,3.11.94h0c1.16.03,2.32.03,3.48,0h0c1.09,0,2.17-.31,3.11-.94l61.62-41.02c1.56-1.04,2.51-2.8,2.51-4.68v-60.54c0-1.22-.32-2.44-1.04-3.42Z"/>
      <polygon class="cls-3" points="85.41 20.6 70.44 46.39 85.41 72.18 100.38 46.39 85.41 20.6"/>
      <polygon class="cls-3" points="22.05 109.13 83.67 150.15 73.67 74.21 22.05 48.43 22.05 109.13"/>
      <polygon class="cls-3" points="148.77 109.13 87.15 150.15 96.83 74.21 148.77 48.43 148.77 109.13"/>
    </g>
  </g>
</svg>