<?xml version="1.0" encoding="UTF-8"?>
<svg id="Layer_2" data-name="Layer 2" xmlns="http://www.w3.org/2000/svg" xmlns:xlink="http://www.w3.org/1999/xlink" viewBox="0 0 264 264">
  <defs>
    <style>
      .cls-1 {
        fill: url(#linear-gradient);
      }

      .cls-1, .cls-2, .cls-3, .cls-4, .cls-5, .cls-6, .cls-7, .cls-8, .cls-9 {
        stroke-width: 0px;
      }

      .cls-2 {
        fill: url(#linear-gradient-6);
      }

      .cls-3 {
        fill: url(#linear-gradient-5);
      }

      .cls-4 {
        fill: #fff;
      }

      .cls-5 {
        fill: url(#linear-gradient-2);
      }

      .cls-6 {
        fill: url(#linear-gradient-7);
      }

      .cls-7 {
        fill: url(#linear-gradient-3);
      }

      .cls-8 {
        fill: url(#linear-gradient-8);
      }

      .cls-9 {
        fill: url(#linear-gradient-4);
      }
    </style>
    <linearGradient id="linear-gradient" x1="115.54" y1="284.24" x2="207.05" y2="116.18" gradientUnits="userSpaceOnUse">
      <stop offset="0" stop-color="#72561d"/>
      <stop offset=".93" stop-color="#bc7b26"/>
    </linearGradient>
    <linearGradient id="linear-gradient-2" x1="103.67" y1="277.78" x2="195.19" y2="109.72" xlink:href="#linear-gradient"/>
    <linearGradient id="linear-gradient-3" x1="124.96" y1="289.37" x2="216.48" y2="121.31" xlink:href="#linear-gradient"/>
    <linearGradient id="linear-gradient-4" x1="66.8" y1="257.7" x2="158.32" y2="89.64" xlink:href="#linear-gradient"/>
    <linearGradient id="linear-gradient-5" x1="47.81" y1="247.36" x2="139.33" y2="79.3" xlink:href="#linear-gradient"/>
    <linearGradient id="linear-gradient-6" x1="50.17" y1="248.64" x2="141.68" y2="80.58" xlink:href="#linear-gradient"/>
    <linearGradient id="linear-gradient-7" x1="40.09" y1="243.16" x2="131.61" y2="75.09" xlink:href="#linear-gradient"/>
    <linearGradient id="linear-gradient-8" x1="30.23" y1="237.78" x2="121.75" y2="69.72" xlink:href="#linear-gradient"/>
  </defs>
  <g id="Layer_1-2" data-name="Layer 1">
    <rect class="cls-4" width="264" height="264"/>
    <g>
      <g>
        <path class="cls-1" d="m181.58,174.76c.52.03,1.04.07,1.56.11.77.06,1.53.13,2.28.22.47.05.94.11,1.4.17.55.07,1.1.15,1.63.23.45.07.89.14,1.32.22,1.87.33,3.64.73,5.29,1.19.41.11.82.23,1.22.36.4.12.79.25,1.17.38.36.12.7.24,1.05.37l-22.14-51.6-1.85,48.24c.74-.02,1.49-.03,2.25-.03,1.64,0,3.25.05,4.82.14Z"/>
        <path class="cls-5" d="m153.36,178.67c.68-.29,1.4-.57,2.15-.84.19-.07.38-.13.57-.2.38-.13.77-.26,1.17-.38.4-.12.8-.24,1.22-.36,2.07-.58,4.32-1.06,6.71-1.43.48-.07.96-.14,1.45-.21,1.47-.19,2.99-.35,4.54-.46.22-.02.45-.03.67-.04.5-14.99,1.34-37.24,2.2-48.36l-20.95,52.39c.09-.04.18-.08.28-.12Z"/>
        <path class="cls-7" d="m154.07,194.55c27.31,10.51,46.06-1.85,46.06-1.85-19.16,7.01-46.06,1.85-46.06,1.85Z"/>
        <path class="cls-9" d="m125.08,264V98.34c-.71.64-3.07,4.89-3.74,5.75-6.34,8.09-6.8,9.56-12.53,13.5-2.41,1.66-7.08,4.52-15.44,4.22,5.13,12.54,18.73,46.62,23.74,59.36.3.2.59.4.86.61.12.09.23.18.34.27,2.01,1.63,2.8,4.65,2.93,5.92,1.05,9.79-14.21,18.57-31.74,18.57s-32.42-8.78-31.74-18.57h0c0-.4.05-.8.15-1.2.01-.05.03-.11.04-.16.31-1.12,1-2.19,2.01-3.19.2-.2.42-.4.65-.6.28-.24.57-.47.88-.7.07-.05.14-.1.2-.15.17-.12.34-.24.52-.35.17-.11.35-.23.54-.34.41-.25.85-.5,1.31-.74.03-.01.05-.03.08-.04l25.37-59.8s.09-.2.24-.42c.02-.11.06-.21.12-.29-2.63-.57-4.47-3.24-3.58-6.18.46-1.52,1.66-2.68,3.19-3.11,3.59-1.01,6.8,2.02,6.13,5.57-.17.89-.61,1.7-1.22,2.34,3.14-1.4,7.58-4.2,13.2-9.75,8.66-8.56,9.67-18.05,17.47-24.33v-24.84c2.66-.86,9.44-.84,12.09.06l91.69,31.11c3.24,1.1,6.6-1.31,6.6-4.73v-14.68l-97.5-33.11c-3.15-1.07-6.57-1.1-9.74-.07L28.55,70.43v19.45c0,1.34.82,2.55,2.07,3.05l18.54,7.35v136.9c0,4.28,2.92,8,7.08,9.02l68.84,17.8Zm84.88-17.99c4.15-1.03,7.06-4.75,7.06-9.02V107c0-3.26-1.85-6.25-4.78-7.69l-74.54-25.49s0-.04,0,6.33l.06,5.33c7.77,6.26,12.33,15.55,20.96,24.07,5.6,5.53,10.03,8.32,13.15,9.71-.61-.65-1.04-1.45-1.21-2.34-.64-3.38,2.27-6.29,5.65-5.65,1.88.36,3.39,1.9,3.77,3.77.43,2.12-.8,4.4-3.25,4.93.06.08.18.88.2.99.15.21.24.41.24.41l24.75,59.55s.05.03.08.04c.46.24.89.48,1.3.73.18.11.36.23.53.34.18.12.35.23.52.35.07.05.14.1.2.15.31.23.6.46.88.69.23.2.45.4.65.6,1.01,1,1.69,1.8,2,2.91.02.05.03.38.04.43.1.39.15.52.15.92v.27c.68,9.76-14.16,18.51-31.62,18.51s-32.68-8.75-31.62-18.51c0-1.92,1.12-3.74,3.12-5.37.11-.09.22-.18.34-.27.27-.21.56-.41.85-.61,4.99-12.69,17.97-47.74,23.45-59.67-8.33.3-12.98-2.55-15.38-4.21-5.7-3.92-9.24-9.3-17.35-17.11-.78-.75-1.54-1.43-2.25-2.07l-.22,164.93,72.25-17.99Z"/>
        <path class="cls-3" d="m88.73,197.27s-8.27-.5-23.89-5.85c-1.78-.76,9.18,7.66,23.89,5.85Z"/>
        <path class="cls-2" d="m94.45,174.31c.22.01.45.03.67.04,1.56.11,3.09.26,4.56.46.49.07.98.14,1.46.21,2.4.37,4.66.85,6.74,1.43.41.12.82.24,1.22.36.4.12.79.25,1.18.38.19.07.38.13.57.2.75.27,1.47.55,2.15.84.09.04.18.08.28.12l-21.03-52.58c.86,11.16,1.7,33.49,2.2,48.54Z"/>
        <path class="cls-6" d="m67.68,177.56c.34-.13.69-.25,1.05-.37.38-.13.78-.26,1.18-.38.4-.12.81-.24,1.22-.36,1.66-.46,3.44-.86,5.31-1.19.44-.08.88-.15,1.33-.22.54-.08,1.09-.16,1.64-.24.46-.06.93-.12,1.41-.17.75-.08,1.52-.16,2.29-.22.52-.04,1.04-.08,1.56-.11,1.58-.09,3.19-.14,4.83-.14.76,0,1.51.01,2.26.03l-1.86-48.42-22.22,51.79Z"/>
      </g>
      <path class="cls-8" d="m128.63,24.84c2.98-.96,6.19-.94,9.16.07l110.11,37.36v-20.25c0-2.4-1.53-4.53-3.8-5.3L138.66.92c-3.53-1.2-7.36-1.23-10.91-.08L19.97,35.62c-2.31.75-3.88,2.9-3.88,5.32v20.21l112.53-36.31Z"/>
    </g>
  </g>
</svg>